#!OML:ASF H:\Martial Arts Walks\Project 1\Capture day 1\Session 1\male.ASF
:FULLY-SPECIFIED
:DEGREES
2217
root -4.28098 13.5156 -31.2454 -187.875 81.218 -191.375
lowerback 20.2132 6.51172 -1.22579
upperback -0.492753 8.12399 -2.52089
thorax -11.6331 3.81227 -4.5237
lowerneck -0.912008 12.7728 3.83531
upperneck 6.74983 17.4123 -4.68552
head 3.16297 8.65045 -1.51953
rclavicle -5.71257e-014 3.43897e-014
rhumerus -29.5975 53.5078 -91.6241
rradius 114.342
rwrist 11.3784
rhand -25.3606 -23.3342
rfingers 7.12502
rthumb 1.16331 -53.3107
lclavicle -5.71257e-014 3.43897e-014
lhumerus -15.2688 13.22 60.0845
lradius 114.022
lwrist 33.7292
lhand -31.9077 16.2909
lfingers 7.12502
lthumb -5.15962 46.2081
rfemur -42.5939 -25.9626 -1.36071
rtibia 86.5011
rfoot -26.1625 -9.66052
rtoes -27.8039
lfemur -43.3105 19.0588 4.47615
ltibia 69.3155
lfoot -19.5704 -1.04494
ltoes -21.8192
2218
root -4.27352 13.4686 -31.3225 -185.857 81.0566 -189.467
lowerback 19.958 6.54102 -1.07843
upperback -0.613083 8.19927 -2.5346
thorax -11.5991 3.83923 -4.61765
lowerneck -0.925246 12.7534 3.7089
upperneck 6.85931 17.3812 -4.46569
head 3.16393 8.63742 -1.43026
rclavicle -2.76808e-014 4.37326e-015
rhumerus -29.3281 53.6048 -91.8053
rradius 114.412
rwrist 11.5628
rhand -25.4278 -22.9438
rfingers 7.12502
rthumb 1.09835 -52.9207
lclavicle -2.76808e-014 4.37326e-015
lhumerus -14.7734 13.1691 60.1304
lradius 113.799
lwrist 33.6687
lhand -31.9263 16.372
lfingers 7.12502
lthumb -5.17753 46.2887
rfemur -42.4671 -25.9198 -1.94663
rtibia 86.6879
rfoot -26.3843 -8.26223
rtoes -27.4002
lfemur -44.0087 19.6344 4.426
ltibia 70.2502
lfoot -20.5778 -1.419
ltoes -21.0189
2219
root -4.26734 13.4247 -31.4 -184.021 80.926 -187.736
lowerback 19.7253 6.57421 -1.03703
upperback -0.75616 8.25826 -2.49265
thorax -11.6281 3.86331 -4.59342
lowerneck -0.87827 12.7377 3.59638
upperneck 6.91219 17.364 -4.37191
head 3.1508 8.63029 -1.38747
rclavicle -1.62506e-014 -1.03368e-014
rhumerus -28.9533 53.8638 -91.9269
rradius 114.338
rwrist 11.7618
rhand -25.6698 -22.8828
rfingers 7.12502
rthumb 0.864625 -52.8608
lclavicle -1.62506e-014 -1.03368e-014
lhumerus -14.4625 13.1685 60.1921
lradius 113.662
lwrist 34.0056
lhand -32.0182 16.3323
lfingers 7.12502
lthumb -5.26628 46.2469
rfemur -42.3177 -25.9202 -2.43357
rtibia 86.7823
rfoot -26.5387 -7.61698
rtoes -28.2984
lfemur -44.4689 19.9898 4.51031
ltibia 70.98
lfoot -21.7513 -1.84028
ltoes -21.0342
2220
root -4.26244 13.3757 -31.4773 -183.001 80.764 -186.791
lowerback 19.5568 6.61699 -1.05083
upperback -0.890902 8.31148 -2.50305
thorax -11.6839 3.88565 -4.60299
lowerneck -0.944738 12.6984 3.65419
upperneck 7.14737 17.3216 -4.30198
head 3.24046 8.61064 -1.36308
rclavicle -2.35063e-014 1.82882e-014
rhumerus -28.8734 54.098 -92.1146
rradius 114.498
rwrist 12.0852
rhand -26.1057 -22.8938
rfingers 7.12502
rthumb 0.443665 -52.8731
lclavicle -2.35063e-014 1.82882e-014
lhumerus -14.1641 13.0919 60.2409
lradius 113.572
lwrist 34.6978
lhand -32.0288 16.2938
lfingers 7.12502
lthumb -5.27656 46.2081
rfemur -42.1201 -26.0907 -3.04178
rtibia 86.842
rfoot -26.8196 -6.91887
rtoes -28.7627
lfemur -44.8235 20.2202 4.53628
ltibia 71.5988
lfoot -22.9664 -1.98078
ltoes -22.3765
2221
root -4.25813 13.3262 -31.5541 -182.279 80.5814 -186.175
lowerback 19.3754 6.6427 -1.10637
upperback -1.03534 8.33326 -2.50825
thorax -11.7517 3.89554 -4.57448
lowerneck -0.95381 12.6797 3.69164
upperneck 7.34957 17.3131 -4.29224
head 3.31477 8.60746 -1.35774
rclavicle -3.68249e-014 1.19271e-015
rhumerus -28.5696 54.3925 -92.2151
rradius 114.49
rwrist 12.3417
rhand -26.7291 -23.3889
rfingers 7.12502
rthumb -0.158433 -53.3685
lclavicle -3.68249e-014 1.19271e-015
lhumerus -13.9307 13.0754 60.2391
lradius 113.577
lwrist 35.6421
lhand -31.8925 16.5545
lfingers 7.12502
lthumb -5.14497 46.472
rfemur -41.9429 -26.3865 -3.65578
rtibia 86.8734
rfoot -27.248 -6.01965
rtoes -28.6944
lfemur -45.2776 20.4451 4.46205
ltibia 72.2444
lfoot -24.0444 -1.98723
ltoes -23.625
2222
root -4.25303 13.2734 -31.6256 -181.487 80.4564 -185.508
lowerback 19.1873 6.6373 -1.15582
upperback -1.20758 8.31004 -2.5679
thorax -11.8402 3.88167 -4.59825
lowerneck -0.916132 12.7536 3.71737
upperneck 7.51064 17.4116 -4.10839
head 3.35054 8.66254 -1.29635
rclavicle -1.22352e-013 2.18663e-015
rhumerus -28.5407 54.7557 -92.6285
rradius 114.508
rwrist 12.6501
rhand -27.0608 -23.3855
rfingers 7.12502
rthumb -0.478793 -53.3647
lclavicle -1.22352e-013 2.18663e-015
lhumerus -13.7807 13.077 60.1459
lradius 113.5
lwrist 36.4791
lhand -31.8093 16.2198
lfingers 7.12502
lthumb -5.0646 46.1392
rfemur -41.8424 -26.795 -4.11475
rtibia 86.9162
rfoot -27.641 -5.58346
rtoes -29.1103
lfemur -45.869 20.8389 4.35802
ltibia 73.038
lfoot -24.9133 -2.0831
ltoes -24.2404
